<svg xmlns="http://www.w3.org/2000/svg" viewBox="0 0 512 512" width="512" height="512">
  <defs>
    <linearGradient id="cartGradient" x1="0%" y1="0%" x2="100%" y2="100%">
      <stop offset="0%" style="stop-color:#3b82f6;stop-opacity:1" />
      <stop offset="100%" style="stop-color:#1d4ed8;stop-opacity:1" />
    </linearGradient>
    <linearGradient id="bgGradient" x1="0%" y1="0%" x2="100%" y2="100%">
      <stop offset="0%" style="stop-color:#f8fafc;stop-opacity:1" />
      <stop offset="100%" style="stop-color:#e2e8f0;stop-opacity:1" />
    </linearGradient>
  </defs>
  
  <!-- Background Circle -->
  <circle cx="256" cy="256" r="240" fill="url(#bgGradient)" stroke="#cbd5e1" stroke-width="8"/>
  
  <!-- Shopping Cart Base -->
  <rect x="120" y="180" width="280" height="160" rx="20" ry="20" fill="url(#cartGradient)" opacity="0.9"/>
  
  <!-- Cart Handle -->
  <rect x="380" y="140" width="12" height="80" rx="6" ry="6" fill="url(#cartGradient)"/>
  <rect x="350" y="140" width="50" height="12" rx="6" ry="6" fill="url(#cartGradient)"/>
  
  <!-- Cart Items (Groceries) -->
  <!-- Apple -->
  <circle cx="180" cy="220" r="18" fill="#ef4444"/>
  <path d="M170 210 Q175 205 180 210" stroke="#22c55e" stroke-width="3" fill="none"/>
  
  <!-- Banana -->
  <ellipse cx="220" cy="225" rx="25" ry="12" fill="#fbbf24" transform="rotate(15 220 225)"/>
  
  <!-- Carrot -->
  <polygon points="260,240 270,240 275,220 265,220" fill="#f97316"/>
  <path d="M267 220 Q270 215 275 218" stroke="#22c55e" stroke-width="2" fill="none"/>
  
  <!-- Milk Carton -->
  <rect x="300" y="200" width="20" height="35" rx="3" ry="3" fill="#f3f4f6" stroke="#6b7280" stroke-width="1"/>
  <rect x="300" y="200" width="20" height="8" fill="#3b82f6"/>
  
  <!-- Bread -->
  <ellipse cx="340" cy="230" rx="22" ry="15" fill="#fbbf24"/>
  <path d="M325 225 Q330 220 335 225 Q340 220 345 225 Q350 220 355 225" stroke="#d97706" stroke-width="2" fill="none"/>
  
  <!-- Cart Wheels -->
  <circle cx="160" cy="370" r="25" fill="#374151" stroke="#111827" stroke-width="3"/>
  <circle cx="160" cy="370" r="12" fill="#6b7280"/>
  
  <circle cx="340" cy="370" r="25" fill="#374151" stroke="#111827" stroke-width="3"/>
  <circle cx="340" cy="370" r="12" fill="#6b7280"/>
  
  <!-- Shopping List Lines -->
  <rect x="140" y="280" width="60" height="3" rx="1.5" fill="#ffffff" opacity="0.8"/>
  <rect x="140" y="290" width="80" height="3" rx="1.5" fill="#ffffff" opacity="0.8"/>
  <rect x="140" y="300" width="50" height="3" rx="1.5" fill="#ffffff" opacity="0.8"/>
  
  <!-- Checkmark -->
  <circle cx="450" cy="120" r="35" fill="#22c55e"/>
  <path d="M435 120 L445 130 L465 110" stroke="#ffffff" stroke-width="6" stroke-linecap="round" stroke-linejoin="round" fill="none"/>
</svg>